<svg xmlns="http://www.w3.org/2000/svg" viewBox="0 0 5506 5115.34" xmlns:v="https://vecta.io/nano"><g fill="#0c80f2"><circle cx="634.86" cy="623.49" r="551.86" opacity=".1"/><circle cx="634.86" cy="623.49" r="431.45" opacity=".4"/><circle cx="634.86" cy="623.49" r="336.13"/><circle cx="4874.14" cy="2630.25" r="551.86" opacity=".1"/><circle cx="4874.14" cy="2630.25" r="431.45" opacity=".4"/><circle cx="4874.14" cy="2630.25" r="336.13"/><circle cx="634.86" cy="4486.51" r="551.86" opacity=".1"/><circle cx="634.86" cy="4486.51" r="431.45" opacity=".4"/><circle cx="634.86" cy="4486.51" r="336.13"/></g><g opacity=".1" fill="none" stroke="#0c80f2" stroke-width="50.169" stroke-miterlimit="10"><path d="M634.86 1175.35s0 52.8 34.36 119.67"/><path d="M834.9 1462.5c80.52 46.8 193.44 84.75 351.82 99.15 485.06 44.1 2113.1-256.6 3035.15-152.62 265.18 29.9 487.83 198.98 591.9 433.26" stroke-dasharray="238.8262,238.8262"/><path d="M4853.14 1954.9c8.26 31.73 14.46 64.3 18.45 97.58 2 16.56 2.55 25.9 2.55 25.9"/></g><g opacity=".1" fill="none" stroke="#0c80f2" stroke-width="50.169" stroke-miterlimit="10"><path d="M4874.14 3182.1s0 52.8-34.36 119.67"/><path d="M4654.96 3479.9c-79 41.87-186.47 75.23-332.68 88.52-485.06 44.1-2113.1-256.6-3035.15-152.62-167.53 11.35-431.4 94.06-566.77 281.36" stroke-dasharray="260.7221,260.7221"/><path d="M659.82 3812.1c-10.66 30.22-18.3 62.4-22.4 96.62-2 16.56-2.55 25.9-2.55 25.9"/></g><path d="M779.8 735.32l-11.26-11.42-.03.02-3.22-3.2-61.74-61.74c13.4-19.6 20.56-42.37 20.74-66.08.5-65.62-52.5-119.4-118.13-119.9h-.9c-65.13 0-118.5 53-119 118.13-.24 31.78 11.9 61.76 34.22 84.4 22.3 22.65 52.1 35.24 83.9 35.48h.9c22.13 0 43.62-6.1 62.36-17.68l68.3 68.3 8.44 8.55c2.45 2.5 5.87 3.8 9.86 3.8 6.43 0 13.77-3.46 19.65-9.26 9.93-9.77 12.5-22.7 5.9-29.4zm-172.93-66.4h-.6c-20.54-.16-39.8-8.3-54.2-22.93-14.42-14.64-22.27-34-22.13-54.56.32-42.1 34.82-76.34 76.9-76.34h.58c42.4.3 76.66 35.07 76.35 77.5-.33 42.08-34.82 76.33-76.9 76.33zM5007.4 2769.85c-10.35-9.83-20-20.4-30.44-30.1-4.25-3.95-3.9-6.14-.63-10.63 26.9-37 20.17-86.92-15.43-115.62-3.56-2.86-4.63-5.68-4.62-9.97l.06-113.43c0-9.52-.86-10.33-10.56-10.35l-196.7.02c-9.33 0-10.33 1.03-10.35 10.6v249.85c0 10.87.68 11.54 11.82 11.56l107.08-.03c4.02 0 7.65.57 11.4 2.4 31.56 15.44 61.75 12.9 90.16-7.78 3.57-2.6 5.22-2.43 8.17.62l31.24 31.57c3.6 3.8 5.35 2.05 8.03-.68 2.64-2.66 4.62-4.38.77-8.03zm-216.92-226.7a4.04 4.04 0 0 1 4.05-4.05h112.17a4.04 4.04 0 0 1 4.05 4.05v6.1c0 2.22-1.8 4.03-4.05 4.03h-112.17c-2.24 0-4.05-1.8-4.05-4.03v-6.1zm0 36.43c0-2.22 1.8-4.03 4.05-4.03h112.17c2.24 0 4.05 1.8 4.05 4.03v6.1a4.04 4.04 0 0 1-4.05 4.05h-112.17a4.04 4.04 0 0 1-4.05-4.05v-6.1zm0 36.42c0-2.22 1.8-4.03 4.05-4.03h57.1c-4.95 4.2-9.43 8.97-13.35 14.17h-43.75a4.04 4.04 0 0 1-4.05-4.05v-6.1zm0 36.2a4.04 4.04 0 0 1 4.05-4.05h31.57l-.38 1.03c-1.38 3.76-2.52 7.65-3.4 11.62l-.32 1.52h-27.48c-2.24 0-4.05-1.8-4.05-4.03v-6.1zm4.05 45.97a4.04 4.04 0 0 1-4.05-4.05v-6.1c0-2.22 1.8-4.03 4.05-4.03h25.76l.06 1.08c.22 4.27.8 8.48 1.67 12.57.03.17.08.35.1.52h-27.6zm114.73 53.63c-33.3.9-62.95-22.54-71.38-53.63a68.71 68.71 0 0 1-2.29-14.17l-.08-1.95a75.36 75.36 0 0 1 2.1-19.7c1.22-4.94 2.92-9.68 5.06-14.17 11.33-23.9 35-40.68 62.65-41.44 41.05-1.1 73.87 30 75.33 71.38 1.38 39.14-31.05 72.6-71.4 73.7zm24.26-109h-62.3c-2.8 0-5.05 2.7-5.05 6.06v5.9c0 3.35 2.26 6.06 5.05 6.06h62.3c2.8 0 5.05-2.7 5.05-6.06v-5.9c.01-3.35-2.26-6.06-5.05-6.06zm0 48.6h-62.3c-2.8 0-5.05 2.7-5.05 6.06v5.9c0 3.35 2.26 6.06 5.05 6.06h62.3c2.8 0 5.05-2.7 5.05-6.06v-5.9c.01-3.34-2.26-6.06-5.05-6.06zM495 4497.17h23.4c4.94 56.14 49.9 100.85 105.8 105.8v23.4c0 5.73 4.68 10.66 10.66 10.66 5.7 0 10.66-4.7 10.66-10.66v-23.4c56.14-4.94 100.85-49.9 105.8-105.8h23.4c5.73 0 10.66-4.7 10.66-10.66 0-5.72-4.7-10.66-10.66-10.66h-23.4c-4.94-56.14-49.9-100.85-105.8-105.8v-23.4c0-5.72-4.7-10.66-10.66-10.66-5.72 0-10.66 4.68-10.66 10.66v23.4c-56.14 4.94-100.85 49.9-105.8 105.8H495c-5.98 0-10.66 4.68-10.66 10.66s4.94 10.66 10.66 10.66zm87.6-21.33h-42.9c4.94-44.45 40.3-79.8 84.48-84.48v42.9c0 5.73 4.68 10.66 10.66 10.66 5.7 0 10.66-4.7 10.66-10.66v-42.9c44.45 4.94 79.8 40.3 84.48 84.48h-42.9c-5.7 0-10.65 4.68-10.65 10.66 0 5.7 4.67 10.66 10.65 10.66H730c-4.95 44.45-40.3 79.8-84.48 84.48v-42.9c0-5.7-4.7-10.65-10.66-10.65-5.72 0-10.66 4.67-10.66 10.65v42.9c-44.45-4.95-79.8-40.3-84.48-84.48h42.9c5.73 0 10.66-4.7 10.66-10.66 0-5.72-4.94-10.66-10.67-10.66zm0 0" fill="#fff"/></svg>